<svg xmlns="http://www.w3.org/2000/svg" viewBox="0 0 426.8 111" enable-background="new 0 0 426.8 111"><style type="text/css">.Arched_x0020_Green{fill:url(#SVGID_1_);stroke:#FFFFFF;stroke-width:0.25;stroke-miterlimit:1;} .st0{fill:#09428F;} .st1{fill:#143A84;} .st2{fill:#D7016B;}</style><linearGradient id="SVGID_1_" gradientUnits="userSpaceOnUse" x1="-86.648" y1="486.918" x2="-85.941" y2="486.211"><stop offset="0" stop-color="#1DA238"/><stop offset=".983" stop-color="#24391D"/></linearGradient><path class="st0" d="M140.7 85.6c0 2.7-.5 5-1.5 7s-2.3 3.6-3.9 4.8c-1.6 1.3-3.4 2.2-5.5 2.8-2 .6-4.1.9-6.3.9h-13v-1.6c.4 0 1 0 1.7-.1s1.1-.2 1.4-.3c.4-.2.8-.5 1-.9.2-.4.3-.8.3-1.4V74.3c0-.5-.1-1-.3-1.4-.2-.4-.5-.7-1-.9-.5-.2-1-.4-1.5-.5-.5-.1-1-.2-1.4-.2v-1.6h13.7c1.9 0 3.7.3 5.6.9 1.8.6 3.4 1.4 4.8 2.4 1.8 1.3 3.3 3 4.3 5.2 1.1 2 1.6 4.5 1.6 7.4zm-5.4 0c0-2.1-.3-4-.8-5.7-.6-1.7-1.4-3.2-2.5-4.5-1-1.2-2.3-2.2-3.8-2.9-1.5-.7-3.1-1-5-1h-2c-.8 0-1.3 0-1.7.1v24.1c0 1.3.4 2.3 1.2 2.8.8.5 2 .8 3.6.8 1.9 0 3.5-.3 4.9-1 1.4-.7 2.5-1.6 3.4-2.8.9-1.2 1.6-2.7 2-4.3.4-1.6.7-3.5.7-5.6zM173.6 101.1h-8.5c-1.9-2.9-3.6-5.5-5.1-7.6-1.5-2.1-3.1-4.4-4.9-6.6h-3.2v10c0 .5.1 1 .2 1.4.2.4.5.7 1 .9.3.1.7.2 1.4.3.7.1 1.2.1 1.7.2v1.6H143v-1.6c.4 0 .9-.1 1.5-.2.7-.1 1.1-.2 1.4-.3.4-.2.8-.5 1-.8.2-.4.3-.8.3-1.4V74.1c0-.5-.1-1-.2-1.4-.1-.4-.5-.7-1-.9-.4-.1-.8-.3-1.4-.4-.6-.1-1.1-.2-1.5-.2v-1.6h14.5c1.3 0 2.6.1 3.7.4s2.2.7 3.2 1.3c.9.6 1.6 1.4 2.2 2.3.5.9.8 2.1.8 3.4 0 1.2-.2 2.3-.6 3.2-.4.9-.9 1.7-1.6 2.4-.7.6-1.5 1.2-2.4 1.7-.9.5-2 .9-3.1 1.2 1.5 2.1 2.8 3.8 3.9 5.2 1 1.4 2.3 3.1 3.8 5.1.7.9 1.2 1.5 1.8 2 .5.4 1 .8 1.6 1 .4.2.9.3 1.4.4.6.1 1.1.2 1.4.2v1.7zM162 77.7c0-1.9-.5-3.4-1.6-4.5s-2.6-1.7-4.6-1.7H152V85h2.9c2 0 3.7-.7 5.1-2 1.3-1.3 2-3 2-5.3zM203.6 101.1h-13.1v-1.6c1.2-.1 2.1-.2 2.9-.4.8-.2 1.1-.5 1.1-.8v-.5c0-.2-.1-.4-.1-.5l-2.6-7h-11c-.4 1-.8 1.9-1 2.7-.3.8-.5 1.5-.7 2.1-.2.6-.3 1.2-.4 1.5-.1.4-.1.7-.1 1 0 .6.5 1 1.4 1.4.9.3 2 .5 3.1.6v1.6h-11.8v-1.6c.4 0 .9-.1 1.4-.3.6-.1 1-.3 1.4-.6.6-.4 1-.8 1.4-1.3.3-.4.6-1 1-1.8 1.6-3.9 3.3-8.4 5.2-13.3 1.9-4.9 3.6-9.3 5.1-13.1h1.8l10.5 27.1c.2.6.5 1 .8 1.4.3.4.7.7 1.2 1 .3.2.8.4 1.3.5.5.1 1 .2 1.4.2v1.7zm-12.7-12.8l-4.8-12.2-4.7 12.2h9.5zM227.5 101.9c-1.9 0-3.7-.4-5.4-1.1-1.7-.7-3.2-1.8-4.6-3.2-1.3-1.4-2.4-3.1-3.1-5.1-.8-2-1.2-4.3-1.2-6.8s.4-4.8 1.1-6.8c.8-2 1.8-3.8 3.2-5.3 1.3-1.5 2.9-2.6 4.8-3.4 1.8-.8 3.8-1.2 5.9-1.2 1.6 0 3 .2 4.2.6 1.3.4 2.4.9 3.6 1.6l.9-1.5h1.8l.2 11.2H237c-.2-1.1-.6-2.3-1.1-3.6-.5-1.3-1-2.4-1.7-3.2-.7-1-1.5-1.8-2.5-2.4-1-.6-2.1-.9-3.3-.9-1.4 0-2.8.3-4 1-1.2.6-2.3 1.6-3.2 2.8-.9 1.2-1.5 2.7-2 4.6-.5 1.8-.7 3.9-.7 6.2 0 2 .3 3.9.8 5.5.5 1.7 1.2 3.1 2.2 4.4.9 1.3 2.1 2.2 3.4 2.9 1.3.7 2.7 1.1 4.3 1.1 1.2 0 2.3-.2 3.3-.6 1-.4 1.9-.9 2.6-1.5.7-.6 1.4-1.4 1.9-2.2.6-.8 1-1.7 1.4-2.7l1.7.8c-1.3 3.1-3 5.3-5 6.7-2.3 1.4-4.8 2.1-7.6 2.1zM263.5 90c0 1.5-.2 3-.7 4.5-.5 1.5-1.2 2.7-2.1 3.8-1 1.2-2.2 2.1-3.5 2.6-1.3.6-2.9.9-4.5.9-1.4 0-2.7-.3-4-.8-1.3-.5-2.4-1.3-3.3-2.3-1-1-1.7-2.2-2.3-3.6-.6-1.4-.9-3-.9-4.8 0-3.4 1-6.2 3-8.4s4.6-3.3 7.8-3.3c3.1 0 5.6 1 7.6 3.1 1.9 2.1 2.9 4.9 2.9 8.3zm-4.6 0c0-1.1-.1-2.3-.3-3.5-.2-1.2-.5-2.3-1-3.1-.5-.9-1.1-1.7-1.9-2.2-.8-.6-1.7-.8-2.8-.8-1.1 0-2.1.3-2.9.8-.8.6-1.5 1.3-2 2.3-.5.9-.8 1.9-1 3.1-.2 1.2-.3 2.3-.3 3.3 0 1.4.1 2.7.3 3.9.2 1.2.6 2.3 1.1 3.2.5.9 1.1 1.7 1.9 2.2.8.5 1.7.8 2.8.8 1.9 0 3.3-.9 4.4-2.7 1.1-1.7 1.7-4.1 1.7-7.3zM290 101.1h-10.7v-1.5c.3 0 .7-.1 1.1-.1.4 0 .7-.1 1-.2.4-.1.7-.4.9-.7.2-.3.3-.8.3-1.3V86.2c0-1.6-.4-2.8-1.1-3.6-.7-.8-1.6-1.3-2.7-1.3-.8 0-1.5.1-2.2.4-.6.2-1.2.5-1.7.9-.5.3-.9.7-1.2 1.1-.3.4-.5.7-.6.9v12.6c0 .5.1.9.3 1.2.2.3.5.6.9.8.3.1.6.3 1 .3.4.1.7.1 1.1.2v1.5h-10.7v-1.5c.3 0 .7-.1 1-.1.4 0 .7-.1.9-.2.4-.1.7-.4.9-.7.2-.3.3-.8.3-1.3V83.9c0-.5-.1-1-.3-1.4-.2-.4-.5-.8-.9-1-.3-.2-.6-.3-1-.4-.4-.1-.8-.1-1.2-.2v-1.5l7.6-.4.3.3v3.1h.1l1.3-1.3c.5-.5 1-.9 1.5-1.2.5-.4 1.2-.6 1.9-.9.8-.2 1.6-.4 2.5-.4 2.1 0 3.6.7 4.7 2 1 1.3 1.5 3 1.5 5.2v11.4c0 .5.1.9.3 1.3.2.3.5.6.9.7.4.1.7.3.9.3.3.1.6.1 1.1.1v1.5zM307.1 90.4c.6.5 1.1 1.1 1.4 1.8.3.7.5 1.5.5 2.5 0 2-.8 3.7-2.3 5-1.5 1.3-3.5 1.9-5.9 1.9-1.3 0-2.4-.2-3.5-.7-1.1-.5-1.8-.9-2.3-1.3l-.4 1.4H293l-.2-7.6h1.5c.1.6.4 1.3.8 2 .4.8.8 1.5 1.4 2.1.6.7 1.3 1.2 2.1 1.6.8.4 1.7.7 2.7.7 1.4 0 2.5-.3 3.3-1 .8-.6 1.2-1.6 1.2-2.8 0-.6-.1-1.2-.4-1.6-.2-.4-.6-.8-1.1-1.2-.5-.3-1.1-.6-1.8-.9-.7-.3-1.5-.5-2.4-.8-.7-.2-1.5-.5-2.3-.9-.9-.4-1.6-.8-2.2-1.3-.7-.5-1.2-1.2-1.6-1.9-.4-.8-.6-1.6-.6-2.7 0-1.8.7-3.3 2-4.5 1.3-1.2 3.1-1.9 5.3-1.9.9 0 1.7.1 2.6.3.9.2 1.6.5 2.2.8l.5-1.2h1.6l.3 7h-1.5c-.3-1.6-1-2.9-2-3.8-1-1-2.3-1.5-3.8-1.5-1.2 0-2.2.3-2.9.9-.7.6-1 1.3-1 2.2 0 .7.1 1.2.3 1.7.2.4.6.8 1 1.1.4.3 1 .6 1.7.8.7.3 1.5.5 2.5.9 1 .3 1.9.7 2.8 1.1.9.9 1.6 1.3 2.1 1.8zM335.7 100.7l-7.1.5-.3-.3v-2.8h-.1l-1.2 1.2c-.4.4-.9.8-1.5 1.1-.7.4-1.3.7-1.9.9-.6.2-1.5.3-2.6.3-1.9 0-3.4-.6-4.4-1.9-1-1.3-1.5-3.1-1.5-5.5V83.9c0-.5-.1-1-.3-1.3-.2-.4-.5-.7-.9-.9-.3-.2-.6-.3-1-.4-.4-.1-.8-.1-1.3-.2v-1.5l7.3-.5.3.3v15.2c0 1.6.4 2.8 1.1 3.6.7.8 1.6 1.2 2.5 1.2.8 0 1.5-.1 2.2-.4.6-.3 1.2-.5 1.6-.9.4-.3.7-.6 1-1 .3-.3.5-.7.7-1V83.7c0-.5-.1-.9-.3-1.3-.2-.4-.5-.7-.9-1-.3-.2-.7-.3-1.2-.3s-1.1-.1-1.8-.1v-1.5l7.9-.5.3.3v17.3c0 .5.1.9.3 1.3.2.4.5.7.9.9.3.2.6.3 1 .3.4.1.8.1 1.2.1v1.5zM348.3 101.1h-10.7v-1.5c.3 0 .7-.1 1.1-.1.4 0 .7-.1.9-.2.4-.1.7-.4.9-.7.2-.3.3-.8.3-1.3V72.1c.1-1.4-.2-2.3-.6-2.6-.3-.2-.8-.3-1.5-.5-.7-.1-1.3-.2-1.7-.3v-1.4l8.2-.5.3.3-.7 30c0 .5.1.9.3 1.3.2.3.5.6.9.8.3.1.6.3 1 .3.3.1.7.1 1.1.2v1.4zM364.6 100.2c-1 .4-1.9.7-2.7 1-.9.3-1.9.4-3.1.4-1.8 0-3.1-.5-3.9-1.4-.7-.9-1.1-2.2-1.1-3.9V81.5h-3.9v-2.1h4v-6.8h4v6.8h6.3v2.1H358v12.2c0 .9 0 1.7.1 2.3.1.6.2 1.1.5 1.6.2.4.6.8 1.1 1 .5.2 1.1.3 1.9.3.4 0 .9 0 1.6-.1.7-.1 1.2-.2 1.5-.3v1.7zM377.3 101.1h-10.5v-1.5c.3 0 .7-.1 1.1-.1.4 0 .7-.1.9-.2.4-.1.7-.4.9-.7.2-.3.3-.8.3-1.3V83.9c0-.5-.1-.9-.3-1.3-.2-.4-.5-.7-.9-1-.3-.2-.7-.3-1.2-.5-.5-.1-1-.2-1.5-.2v-1.5l7.7-.5.3.3V97c0 .5.1.9.3 1.3.2.3.5.6.9.8l.9.3c.3.1.7.1 1 .2v1.5zM404.1 101.1h-10.7v-1.5c.3 0 .7-.1 1.1-.1.4 0 .7-.1 1-.2.4-.1.7-.4.9-.7.2-.3.3-.8.3-1.3V86.2c0-1.6-.4-2.8-1.1-3.6-.7-.8-1.6-1.3-2.7-1.3-.8 0-1.5.1-2.1.4-.7.2-1.2.5-1.7.9-.5.3-.9.7-1.2 1.1-.3.4-.5.7-.6.9v12.6c0 .5.1.9.3 1.2.2.3.5.6.9.8.3.1.6.3 1 .3.4.1.7.1 1.1.2v1.5H380v-1.5c.3 0 .7-.1 1.1-.1.4 0 .7-.1.9-.2.4-.1.7-.4.9-.7.2-.3.3-.8.3-1.3V83.9c0-.5-.1-1-.3-1.4-.2-.4-.5-.8-.9-1-.3-.2-.6-.3-1-.4-.4-.1-.8-.1-1.2-.2v-1.5l7.2-.4.3.3v3.1h.1l1.3-1.3c.5-.5 1-.9 1.5-1.2.5-.4 1.2-.6 2-.9.7-.2 1.6-.4 2.5-.4 2.1 0 3.6.7 4.7 2 1 1.3 1.5 3 1.5 5.2v11.4c0 .5.1.9.3 1.3.2.3.5.6.9.7.4.1.7.3.9.3.3.1.6.1 1.1.1v1.5zM424.9 98.9c.6.6 1.1 1.2 1.4 1.9.3.7.5 1.6.5 2.6 0 1.1-.2 2-.7 3-.5.9-1.2 1.7-2.1 2.4-1 .7-2.2 1.2-3.5 1.6-1.4.4-3.1.6-5.1.6-3.3 0-5.8-.5-7.4-1.5-1.6-1-2.5-2.4-2.5-4.2 0-1.5.6-2.7 1.8-3.6 1.2-.9 2.7-1.3 4.5-1.4v-.3c-.4-.1-.9-.3-1.4-.5-.5-.2-.9-.4-1.2-.7-.4-.3-.7-.7-.9-1.1-.2-.4-.4-.9-.4-1.6 0-.8.3-1.5.8-2.2.6-.7 1.4-1.2 2.5-1.7v-.3c-1.4-.7-2.5-1.5-3.3-2.6-.8-1-1.2-2.3-1.2-3.6 0-2.1.8-3.8 2.3-5.1 1.5-1.3 3.5-2 5.9-2 .7 0 1.3.1 2 .2s1.3.3 2 .5h7.6v2.1h-5.1v.1c.5.6 1 1.3 1.2 2.1.3.8.4 1.5.4 2.3 0 1.9-.8 3.5-2.3 4.9-1.6 1.3-3.4 2-5.4 2h-2.7c-.3.1-.7.3-1.1.6-.4.3-.5.7-.5 1.3 0 .5.2 1 .5 1.3.3.3.7.5 1.1.6.4.1.9.2 1.5.2s1.2 0 1.8.1c.6 0 1.5.1 2.7.1 1.1.1 1.9.1 2.4.1.7 0 1.4.2 2 .5.7.3 1.3.8 1.9 1.3zm-1.7 5.3c0-.8-.2-1.5-.6-2-.4-.5-1-.9-1.8-1.1-.4-.1-1.3-.1-2.5-.2-1.3-.1-2.8-.1-4.5-.1-1.6.3-2.7.8-3.4 1.6-.7.7-1 1.7-1 2.8 0 .5.1 1 .3 1.5.2.5.6.9 1.2 1.3.5.4 1.2.7 2.1.9.9.2 1.9.4 3.2.4 2.2 0 3.9-.4 5.1-1.3 1.2-.8 1.9-2.1 1.9-3.8zm-4.3-18.3c0-1.7-.3-3.1-1-4.1-.7-1-1.7-1.5-3-1.5-.7 0-1.3.1-1.8.4-.5.3-.9.7-1.2 1.2-.3.5-.5 1.1-.6 1.8-.1.7-.2 1.4-.2 2.1 0 1.6.4 3 1.1 4 .7 1 1.6 1.5 2.8 1.5 1.3 0 2.2-.5 2.9-1.5.7-1 1-2.3 1-3.9z"/><circle class="st1" cx="371.7" cy="71.3" r="2.8"/><path class="st0" d="M156.1 33.3s-.2 2.2-2 4.7-5.4 6.3-14.1 6.3-16.1-4.5-33.6-14.6-21.9-12.3-29.7-12.3-14.5 3.8-17.4 9.6c-2.6 5.3-2.5 10.5-2.5 24.4 1.6.9 3.1 1.8 4.6 2.6 0-3.1.1-7.7 1.6-12.7 1.8-6.1 4.4-9.9 10.3-11 5.9-1.1 10.6.3 18.7 4.9 1.4.8 3.2 1.8 5.3 3 1.5.8 3 1.7 4.6 2.6 4.8 2.8 9.9 5.7 13.1 7.4 5.5 3.1 9.2 5.6 16.1 7.8 7 2.2 17 3.4 24.1-4.7 7.2-8 .9-18 .9-18zM56.8 71.7v2.5c0 9.8-6.2 11.5-10.7 12-6.2.7-15.5-1.5-15.5-1.5s7.7 10.7 17 10.8c9.3.1 13.9-5.6 13.9-15v-6.2c-1.5-.8-3.1-1.7-4.7-2.6z"/><path class="st2" d="M100.4 43.3l-3.2-1.8c0 3.1-.1 7.7-1.6 12.7-1.8 6.1-4.4 9.9-10.3 11-5.9 1.1-10.6-.3-18.7-4.9-5.4-3.1-17.3-9.9-22.9-13-5.5-3.1-9.2-5.6-16.1-7.8-7-2.2-17-3.4-24.1 4.7-7.2 8.1-.9 18.1-.9 18.1s.2-2.2 2-4.7 5.4-6.3 14.1-6.3 16.1 4.5 33.6 14.6c17.4 10 21.9 12.2 29.7 12.2s14.5-3.8 17.3-9.6c2.6-5.3 2.5-10.5 2.5-24.4-.4-.3-.9-.5-1.4-.8zM101.9 23.8v-2.5c0-9.8 6.2-11.5 10.7-12 6.2-.7 15.5 1.5 15.5 1.5S120.4.1 111.1 0c-9.3-.1-13.9 5.6-13.9 15v6.2c1.5.8 3 1.6 4.7 2.6z"/></svg>