<svg xmlns="http://www.w3.org/2000/svg" viewBox="0 0 273.7 49" enable-background="new 0 0 273.7 49"><style type="text/css">.st0{fill:#5E9FB2;} .st1{fill:#E54B00;} .st2{fill:#464646;}</style><path class="st0" d="M45.7 36.7c-1.2-1-2.8-2.7-3.7-3.6C48 19.2 38.5 5 24.4 5 13.8 4.9 5 13.4 4.9 24.1c0 .6 0 1.2.1 1.9.5 10.2 9 18.1 19.3 18.1 3 0 6-.7 8.7-2.1l3.7 3.7c-3.4 1.7-6.1 2.9-10.2 3.2C11.4 49.9 0 38.7 0 24.6-.1 11.9 9.6 1.2 22.2.2c9.4-.9 18.5 3.7 23.2 11.9 3.8 6.5 5 17.2.3 24.6"/><path class="st1" d="M16.1 19.4c-3.2 5.3-.1 11.8 3.8 13.9 8.2 4.2 18.3-5.1 12.9-13.9-2-2.9-5.3-4.6-8.8-4.5-3.2 0-6.2 1.7-7.9 4.5m20.7 13c2.7 3 6.2 6.4 9.3 9.6.9.9 2.6 2.3 2.7 3.4.3 1.6-.8 3.2-2.4 3.5-.2 0-.3 0-.5.1-1.6 0-2.8-1.6-3.8-2.6-3.3-3.3-6.3-6.5-9.6-9.6-2 1.3-4.3 2.1-6.7 2.3-8.1.8-15.3-5.1-16.1-13.1s5.1-15.3 13.2-16C31 9.1 38.2 15.1 39 23.2c.3 3.2-.5 6.5-2.2 9.2"/><path class="st0" d="M69.2 32.5c-.2 1.2.6 2.3 1.8 2.5h.6c2.7 0 2.5-2.3 2.5-3.1V16.4c0-.8-.2-2.5-2.4-2.5-.5 0-.9.1-1.3.3-1.2.5-1.2 1.8-1.2 2.9v15.4zm12.1 6.6l-3.1 3.1-3.5-3.6c-.2 0-.3.1-.5.2-1 .2-2 .3-3 .3-2.1.1-4.2-.6-5.8-2-.4-.4-.7-.9-1-1.5-.2-.8-.4-1.7-.4-2.6V16.7c0-1.2.2-2.3.6-3.4.8-1.7 3-3.4 7.1-3.4 2-.1 4 .5 5.6 1.7.5.4 1 1 1.3 1.6.5 1.2.7 2.4.6 3.7v15.7c.1 1.2-.2 2.4-.8 3.4l2.9 3.1zM92 26.1v-2.5c0-.4.1-2-1.6-2-1.7 0-1.7 1.5-1.7 2v2.5H92zm4.5 5.7v1.6c0 .6 0 1.2-.2 1.8-.8 2.9-3.3 3.6-6 3.6-4.1 0-5.5-2.1-6-3.9-.2-.9-.3-1.8-.3-2.7v-8.6c0-.9.2-1.9.5-2.7 1-2.4 3.6-3.3 5.9-3.3 3.2 0 5 1.7 5.6 2.9.4.9.6 1.9.5 2.9v5.8h-7.9v3.3c0 .5 0 .9.1 1.3.2.7.9 1.2 1.6 1.2.7 0 1.3-.4 1.5-1.1.1-.2.1-.5.1-.7v-1.6l4.6.2zM105.9 18.2v1.5c1-1.2 2.4-1.9 4-1.9 1.8-.1 3.5 1.1 4 2.9.1.7.2 1.3.2 2v15.9h-4.6v-15c0-1.3-.1-1.8-.7-2.2-.3-.2-.6-.3-.9-.2-2.2 0-2 2.3-2 2.7v14.6h-4.7V18.2h4.7zM124.6 10.9v7.4h2.8v3.1h-2.8V33c0 .4 0 .8.1 1.1.3.9 1.2 1.1 2 1.1.3 0 .5 0 .8-.1v3.4c-.8.2-1.6.3-2.4.2-2.7 0-4.1-.6-4.7-1.9-.3-.7-.4-1.5-.4-2.3V21.4h-2.5v-3.1h2.5v-7.4h4.6zM131 18.2h4.7v20.3H131zM131 10.5h4.7v4.8H131zM145.3 18.2v1.5c1-1.2 2.4-1.9 4-1.9 1.8-.1 3.5 1.1 4 2.9.1.7.2 1.3.2 2v15.9h-4.6v-15c0-1.3-.1-1.8-.7-2.2-.3-.2-.6-.3-.9-.2-2.2 0-2 2.3-2 2.7v14.6h-4.7V18.2h4.7zM166.1 26.1v-2.5c0-.4.1-2-1.6-2-1.7 0-1.7 1.5-1.7 2v2.5h3.3zm4.5 5.7v1.6c0 .6 0 1.2-.2 1.8-.8 2.9-3.3 3.6-6 3.6-4.1 0-5.5-2.1-6-3.9-.2-.9-.3-1.8-.3-2.7v-8.6c0-.9.2-1.9.5-2.7 1-2.4 3.6-3.3 5.9-3.3 3.3 0 5 1.7 5.6 2.9.4.9.6 1.9.5 2.9v5.8h-7.9v3.3c0 .5 0 .9.1 1.3.2.7.9 1.2 1.6 1.2.7 0 1.3-.4 1.5-1.1.1-.2.1-.5.1-.7v-1.6l4.6.2zM175.3 10.5h4.7v28h-4.7z"/><path class="st2" d="M203.1 0h1.5v49h-1.5zM217 13.4h2l-2.1-3c1.2-.2 2.1-1.3 2-2.5.1-1.4-1-2.6-2.4-2.7H212.9v8.3h1.7v-3h.6l1.8 2.9zm-2.5-6.8h1.5c.7 0 1.2.5 1.2 1.2v.1c0 .6-.5 1.2-1.1 1.2h-1.5V6.6zm9.6 6.9c2.3 0 4.2-1.9 4.2-4.2 0-2.3-1.9-4.2-4.2-4.2-2.3 0-4.2 1.9-4.2 4.2 0 2.3 1.9 4.2 4.2 4.2zm0-1.5c-1.4 0-2.5-1.1-2.5-2.6v-.1c-.1-1.4 1-2.6 2.4-2.7h.1c1.4 0 2.5 1.2 2.5 2.6v.1c.1 1.4-1 2.6-2.4 2.7h-.1zm10.3-3c.7-.2 1.2-1 1.1-1.7 0-1.2-1-2.2-2.2-2.2h-3.5v8.3h3.5c1.3.1 2.5-.8 2.6-2.1V11c.2-.9-.5-1.8-1.5-2zM233 6.6c.4 0 .8.3.9.8v.1c.1.4-.3.9-.7.9h-1.6V6.6h1.4zm.2 5.4h-1.6V9.8h1.6c.6-.1 1.1.4 1.1.9v.1c0 .6-.5 1.1-1 1.1l-.1.1zm8 1.5c2.3 0 4.2-1.9 4.2-4.2 0-2.3-1.9-4.2-4.2-4.2-2.3 0-4.2 1.9-4.2 4.2 0 2.3 1.9 4.2 4.2 4.2zm0-1.5c-1.4 0-2.5-1.1-2.5-2.6v-.1c-.1-1.4 1-2.6 2.4-2.7h.1c1.4 0 2.5 1.2 2.5 2.6v.1c.1 1.4-1 2.6-2.4 2.7h-.1zm10.9-6.8h-6.2v1.5h2.3v6.8h1.7V6.6h2.3V5.2zm1.3 8.2h1.7V5.2h-1.7v8.2zm7.4.1c1.3 0 2.6-.6 3.4-1.7l-1.3-.9c-.5.7-1.2 1.1-2.1 1.1-1.4 0-2.6-1.2-2.6-2.6v-.1c0-1.4 1.1-2.6 2.5-2.7h.1c.8 0 1.6.4 2 1.1l1.3-.9c-.8-1.1-2-1.7-3.4-1.7-2.3 0-4.2 1.9-4.2 4.2.1 2.3 1.9 4.2 4.3 4.2zm-45.5 15c1.6 0 3-.9 3-2.5 0-1.4-1.1-2.1-2.3-2.4l-.9-.3c-.9-.2-.9-.7-.9-.9 0-.6.5-1 1.1-1 .6-.1 1.1.4 1.1.9v.1h1.7c0-1.4-1.1-2.5-2.5-2.5h-.3c-1.4-.1-2.7.9-2.8 2.3v.1c0 .7.3 1.8 2.1 2.3l1 .3c.7.2 1 .5 1 1 0 .6-.5 1-1.2 1-.7.1-1.3-.4-1.4-1.1h-1.7c.1 1.7 1.3 2.7 3 2.7zm8.2 0c2.3 0 4.3-1.9 4.3-4.2s-1.9-4.3-4.2-4.3c-2.3 0-4.3 1.9-4.3 4.2 0 2.4 1.9 4.3 4.2 4.3zm0-1.5c-1.4 0-2.5-1.1-2.5-2.6v-.1c-.1-1.4 1-2.6 2.4-2.7 1.4-.1 2.6 1 2.7 2.4v.3c.1 1.4-1 2.6-2.4 2.7h-.2zm10.9-5.4v-1.5h-5.1v8.3h1.7v-3.3h2.7v-1.5H231v-2h3.4zm6.8-1.4H235v1.5h2.3v6.8h1.7v-6.8h2.3l-.1-1.5zm9.2 0l-1.7 5.4-1.1-4.2h-1.4l-1.2 4.2-1.7-5.4h-1.8l2.8 8.3h1.3l1.2-4.5 1.2 4.5h1.3l2.8-8.3h-1.7zm7.6 8.2h1.8l-3.1-8.3h-1.8l-3.1 8.3h1.8l.7-2h3.1l.6 2zm-3.2-3.4l1-3.1 1.1 3.1h-2.1zm10.2 3.4h2l-2.1-3c1.2-.2 2.1-1.3 2-2.5.1-1.4-1-2.6-2.4-2.7H260.9v8.3h1.7v-3h.6l1.8 2.9zm-2.6-6.8h1.5c.7 0 1.2.5 1.2 1.2v.1c0 .6-.5 1.2-1.1 1.2h-1.5v-2.5zm7.7 5.4v-1.8h3.1v-1.5h-3.1v-2h3.5v-1.5h-5.2v8.3h5.3V27h-3.6zm-51.8 8.2h-6.2v1.5h2.3v6.8h1.7v-6.8h2.3v-1.5zm2.9 6.8v-1.8h3.1v-1.5h-3.1v-2h3.5v-1.5h-5.2v8.3h5.3V42h-3.6zm7.8 1.5c1.6 0 3-.9 3-2.5 0-1.4-1.1-2.1-2.3-2.4l-.9-.3c-.9-.2-.9-.7-.9-.9 0-.6.5-1 1.1-1 .6-.1 1.1.4 1.1.9v.1h1.7c0-1.4-1.1-2.5-2.5-2.5h-.3c-1.4-.1-2.7.9-2.8 2.3v.1c0 .7.3 1.8 2.1 2.3l1 .3c.7.2 1 .5 1 1 0 .6-.5 1-1.2 1-.7.1-1.3-.4-1.4-1.1H226c0 1.7 1.2 2.7 3 2.7zm9.7-8.3h-6.2v1.5h2.3v6.8h1.7v-6.8h2.3l-.1-1.5zm1.3 8.2h1.7v-8.3H240v8.3zm8.2-8.2v5.1l-3-5.1h-1.5v8.3h1.7v-5.2l3 5.2h1.5v-8.3h-1.7zm7.4 8.3c2.4 0 4-1.4 4-4.4h-4.2v1.4h2.3v.2c-.3.9-1.2 1.5-2.1 1.4-1.5-.1-2.6-1.3-2.6-2.7 0-1.4 1.1-2.7 2.5-2.7.7 0 1.4.3 1.8.8l1.2-1c-.8-.9-1.9-1.3-3.1-1.3-2.3 0-4.2 1.9-4.2 4.2s2.1 4.1 4.4 4.1z"/></svg>