<svg id="Layer_1" xmlns="http://www.w3.org/2000/svg" viewBox="0 0 345 198"><style>.st0{fill:#192d64}.st1{fill:#fff}.st2{fill:#91cdf0}</style><path class="st0" d="M3.5 166.5h337.9v27.6H3.5zM3.5 158.1h14.9v-9.6h15.9c10.5 0 14.3-4.6 14.3-10.5 0-6.9-3.9-10.8-14.4-10.8H3.5v7.3h26.6l.4.1.5.2.5.3.4.2.2.2.3.3.2.3.2.3.1.3.1.4.1.6v.6l-.1.3-.1.3-.1.3-.1.3-.2.3-.1.2-.3.3-.2.2-.2.2-.3.2-.2.1-.3.1-.4.1-.3.1H3.3v16.8zM51.3 142.7c0 16 16.7 16.5 25.7 16.5s25.7-.5 25.7-16.5S86 126.2 77 126.2s-25.7.6-25.7 16.5m15.8 0c0-6.3 3.8-8.7 9.9-8.7 6.1 0 9.9 2.5 9.9 8.7s-3.8 8.7-9.9 8.7c-6.1.1-9.9-2.4-9.9-8.7M138.3 158.2h14.9v-30.9h-14.9v10.8h-16.6v-10.8h-14.9v30.9h14.9v-12.3h16.6zM178.8 146.9c0 3.4-1.4 4.8-4.5 4.8-2.1 0-3.2-.5-3.8-1.6-.6-1.1-.7-2.7-.7-4.9H155c0 11.1 5.8 14 20.2 14 15.9 0 18.5-5.4 18.5-13.2v-18.7h-14.8v19.6zM198.2 142.7c0 16 16.7 16.5 25.7 16.5s25.7-.5 25.7-16.5-16.7-16.5-25.7-16.5-25.7.6-25.7 16.5m15.8 0c0-6.3 3.8-8.7 9.9-8.7s9.9 2.5 9.9 8.7-3.8 8.7-9.9 8.7-9.9-2.4-9.9-8.7M254.8 158.2h37.8v-8.3h-23v-22.6h-14.8z"/><path class="st0" d="M307.3 127.3l-16 30.9h13l12.1-23.3 7.7 14.9-7.8.1-4.3 8.3h29.5l-16-30.9z"/><g><path class="st1" d="M69.5 188.2h5.6v-13h3.3c1.5 0 2.9.1 3.9.5 1.2.5 2.1 1.3 2.1 2.3 0 1-.7 1.8-1.8 2.3-1.1.5-3.1.6-5 .6h-1.1l7.4 7.3h5.8l-6.1-5.8c1.8-.3 3.3-.7 4.6-1.7.9-.8 1.5-1.8 1.5-2.9 0-1.8-1.2-3.4-3.5-4.3-1.5-.6-3.9-1-8.2-1h-8.3v15.7zm31.1-3.1h10.9l2 3.1h6.1l-10.9-15.8h-4.9l-11.2 15.8h6l2-3.1zm9.4-2.6h-7.9l3.9-6.4 4 6.4zm15.1 5.7h5.6v-7.1l9.2 7.1h6.8l-11-7.9 10-7.9h-5.9l-9.1 7.3v-7.3h-5.6v15.8zm25.9 0h15.5v-2.8h-9.9v-3.8h9.8v-2.8h-9.8v-3.6h9.9v-2.8H151v15.8zm26.7-15.8h-5v15.8h5.3l-.1-10.9 12.7 10.9h4.9v-15.8h-5.3l.1 10.9-12.6-10.9zm30 0h-5v15.8h5.3l-.1-10.9 12.7 10.9h4.9v-15.8h-5.3l.1 10.9-12.6-10.9zm24.9 0v9.7c0 2.1.4 3.5 2.9 4.9 2.1 1.2 5.3 1.5 7.2 1.5 3 0 5.4-.6 7.1-1.5 2.1-1.1 2.9-2.5 2.9-4.8v-9.7h-5.6v9.7c0 .8 0 1.7-.8 2.4-.6.7-1.8 1.1-3.7 1.1s-3.1-.5-3.7-1.2c-.8-.8-.8-1.6-.8-2.4v-9.7h-5.5zm25.7 10.9c0 3.1 3.2 5.2 9.5 5.2 6.5 0 9.2-2.4 9.2-4.9 0-2.2-2.4-3.4-6.6-4.4-4.7-1.1-6.1-1.4-6.1-2.6 0-1.1 1.6-1.8 3.4-1.8 2.7 0 3.2 1.2 3.4 1.9h5.5c-.2-3.5-5.1-4.6-8.7-4.6-4.5 0-9.1 1.6-9.1 4.7 0 3 4.8 4 6.9 4.4 3.8.9 5.8 1.2 5.8 2.6 0 1.1-1.6 2.1-3.8 2.1-1.2 0-3.7-.4-3.9-2.5h-5.5z"/><path class="st0" d="M172.5 64.6V3.7L60 115.6h63.4c0-28.3 21-51 49.1-51"/><path class="st2" d="M172.5 64.6V3.7L285 115.6h-63.5c.1-28.3-20.9-51-49-51"/></g></svg>