<?xml version="1.0" encoding="UTF-8"?>
<svg width="208px" height="37px" viewBox="0 0 208 37" version="1.1" xmlns="http://www.w3.org/2000/svg" xmlns:xlink="http://www.w3.org/1999/xlink">
    <g stroke="none" stroke-width="1" fill="none" fill-rule="evenodd">
        <g fill-rule="nonzero" fill="#EB172D">
            <path d="M207.7,35.3 L207.7,32.2 C207.7,31.4 207.7,31.2 206.7,31.2 L196.9,31.2 C194.1,31.2 193.1,30.2 193.1,27.1 L193.1,20.9 L206.2,20.9 C207,20.9 207.2,20.9 207.2,19.9 L207.2,16.4 C207.2,15.4 207.1,15.5 206.2,15.4 L193.1,15.4 L193.1,10.2 C193.1,7 194.1,6.1 196.9,6.1 L206.7,6.1 C207.6,6.1 207.7,6.2 207.7,5.1 L207.7,2 C207.7,1.1 207.7,1.2 206.7,1 C205.2,0.8 203.3,0.3 197.5,0.3 C191.2,0.3 186.4,2 186.4,10.2 L186.4,27 C186.4,35.2 191.3,36.9 197.5,36.9 C203.2,36.9 205.1,36.5 206.7,36.2 C207.7,36.2 207.7,36.2 207.7,35.3 L207.7,35.3 Z M183.4,5.6 L183.4,1.8 C183.4,0.9 183.3,0.9 182.4,0.9 L158.9,0.9 C158.1,0.9 157.9,0.9 157.9,1.8 L157.9,5.6 C157.9,6.4 157.9,6.5 158.9,6.5 L167.3,6.5 L167.3,35.7 C167.3,36.5 167.2,36.7 168.3,36.7 L173.1,36.7 C174.1,36.7 174.1,36.6 174.1,35.7 L174.1,6.4 L182.5,6.4 C183.4,6.4 183.4,6.4 183.4,5.6 L183.4,5.6 Z M150.1,21.2 L141.6,21.2 L145.1,6.9 C145.2,6.3 145.4,6.1 145.9,6.1 C146.4,6.1 146.5,6.3 146.7,6.9 L150.1,21.2 L150.1,21.2 Z M160.5,35.8 L160.5,35.6 L152.6,5.4 C151.4,0.9 148,0.5 145.9,0.5 C143.8,0.5 140.4,0.9 139.2,5.4 L131.3,35.6 L131.3,35.8 C131.2,36.5 131.2,36.6 132.2,36.6 L137.3,36.6 C138.2,36.6 138.1,36.5 138.2,35.8 L140.4,26.7 L151.5,26.7 L153.7,35.8 C153.9,36.7 154.2,36.6 154.6,36.6 L159.7,36.6 C160.5,36.5 160.6,36.7 160.5,35.8 L160.5,35.8 Z M126.7,35 L126.7,18.8 C126.7,17.9 126.7,17.8 125.7,17.8 L120.9,17.8 C120.1,17.8 120,17.8 120,18.8 L120,31.1 C118.5,31.2 117,31.2 115.2,31.2 C112.4,31.2 109,29 109,22.1 L109,15.2 C109,8.4 112.1,6.1 115.3,6.1 C119.9,6.1 123.2,6.3 125.5,6.5 L125.6,6.5 C126.6,6.5 126.6,6.5 126.6,5.5 L126.6,2.3 C126.6,1.4 126.6,1.5 125.7,1.3 C124.1,1 120,0.4 115.3,0.4 C109.6,0.4 102.3,3.8 102.3,15.2 L102.3,22.1 C102.3,33.5 110,36.9 115.2,36.9 C120.2,36.9 123.3,36.6 125.7,36.1 C126.7,35.9 126.7,35.9 126.7,35 L126.7,35 Z M96.1,35.7 L96.1,1.7 C96.1,0.9 96.1,0.8 95.1,0.8 L90.3,0.8 C89.4,0.8 89.4,0.8 89.3,1.7 L89.3,35.6 C89.3,36.5 89.4,36.6 90.3,36.6 L95.1,36.6 C96,36.6 96.1,36.5 96.1,35.7 L96.1,35.7 Z M82.9,5.2 L82.9,2.1 C82.9,1.2 82.9,1.3 81.9,1.1 C80.4,0.9 78.5,0.4 72.8,0.4 C66.5,0.4 61.7,2.1 61.7,10.3 L61.7,35.6 C61.7,36.4 61.7,36.6 62.7,36.6 L67.4,36.6 C68.2,36.6 68.3,36.6 68.4,35.6 L68.4,20.9 L81.5,20.9 C82.3,20.9 82.5,21 82.5,19.9 L82.5,16.4 C82.5,15.4 82.5,15.5 81.5,15.4 L68.3,15.4 L68.3,10.2 C68.3,7 69.3,6.1 72.1,6.1 L81.9,6.1 C82.8,6.2 82.9,6.2 82.9,5.2 L82.9,5.2 Z M48.6,22 C48.6,28.4 46.3,31.2 41.6,31.2 C36.9,31.2 34.6,28.4 34.6,22 L34.6,15.5 C34.6,9.1 36.9,6.3 41.6,6.3 C46.3,6.3 48.6,9.1 48.6,15.5 L48.6,22 Z M55.4,22 L55.4,15.5 C55.4,4.9 49.6,0.5 41.7,0.5 C33.8,0.5 28,4.9 28,15.5 L28,22 C28,32.6 33.8,37 41.7,37 C49.6,37 55.4,32.6 55.4,22 L55.4,22 Z M23.1,26.9 C23.1,23.1 21.7,20 16.4,17.1 L10.6,13.9 C7.5,12.2 6.7,11.2 6.7,9.6 C6.7,7.4 8.2,6.2 11.8,6.2 C14.9,6.2 18.1,6.4 21.3,6.7 L21.4,6.7 C22.2,6.7 22.2,6.9 22.2,5.8 L22.2,2.2 C22.2,1.4 22.2,1.5 21.3,1.3 C19.7,0.9 15.2,0.4 12.1,0.4 C3.1,0.4 0.1,4.3 0.1,9.5 C0.1,12.9 1.3,15.7 5.8,18.3 L12.2,22.1 C15.4,24 16.3,24.9 16.3,26.8 C16.3,29.6 15,31.1 10.7,31.1 C8.9,31.1 4.1,30.9 2.2,30.6 L2.1,30.6 C1.4,30.6 1.2,30.5 1.2,31.5 L1.2,35 C1.2,35.9 1.2,35.8 2.1,36 C4.4,36.5 7,36.9 10.6,36.9 C20.1,37 23.1,31.8 23.1,26.9 L23.1,26.9 Z" id="Shape"></path>
        </g>
    </g>
</svg>