<svg xmlns="http://www.w3.org/2000/svg" viewBox="0 0 1680.94 349.9"><defs><style>.cls-1{fill:#fff;}</style></defs><title>tarkkala_logo_vaaka_neg</title><g id="Layer_2" data-name="Layer 2"><g id="Layer_1-2" data-name="Layer 1"><path class="cls-1" d="M487.71,116.54V318.26H438.85V116.54H400.73V71.39h125.1v45.15Z"/><path class="cls-1" d="M638,318.26l-9.25-41.46H579.5l-8.88,41.46H521.76L579.5,71.39h51.08L689.8,318.26Zm-16.66-79.58c-5.18-23.68-10.36-47-14.06-71.06-1.48-10.73-3-21.84-4.07-32.57-2.22,34.79-9.26,69.21-16.29,103.63Z"/><path class="cls-1" d="M802.31,318.26,759,204.63V318.26H710.15V71.39h52.92c18.14,0,38.12,1.48,53.67,11.84,19.62,13,29.24,37,29.24,60,0,28.13-11.11,48.12-35.16,62.92l42.93,112.15ZM759,177.61a60,60,0,0,0,8.14.37c21.1,0,31.47-14.43,31.47-34.42s-8.89-33.68-30.36-33.68H759Z"/><path class="cls-1" d="M979.59,318.26,934.06,192.79V318.26H885.21V71.39h48.85V181.68L975.15,71.39h50l-45.52,114,51.07,132.87Z"/><path class="cls-1" d="M1146.88,318.26l-45.52-125.47V318.26H1052.5V71.39h48.86V181.68l41.07-110.29h50l-45.52,114L1198,318.26Z"/><path class="cls-1" d="M1325.64,318.26l-9.25-41.46h-49.23l-8.88,41.46h-48.86l57.74-246.87h51.08l59.22,246.87ZM1309,238.68c-5.19-23.68-10.37-47-14.07-71.06-1.48-10.73-3-21.84-4.07-32.57-2.22,34.79-9.25,69.21-16.29,103.63Z"/><path class="cls-1" d="M1397.81,318.26V71.39h48.85V272h51.08v46.27Z"/><path class="cls-1" d="M1629.13,318.26l-9.26-41.46h-49.22l-8.88,41.46h-48.86l57.74-246.87h51.08l59.21,246.87Zm-16.66-79.58c-5.18-23.68-10.36-47-14.06-71.06-1.48-10.73-3-21.84-4.07-32.57-2.22,34.79-9.26,69.21-16.29,103.63Z"/><path class="cls-1" d="M341,120a174,174,0,0,0-19.19-40H28.06A174,174,0,0,0,8.87,120Z"/><path class="cls-1" d="M239.09,159.4V337.71A175,175,0,0,0,349.9,175c0-5.24-.27-10.42-.73-15.55Z"/><path class="cls-1" d="M282,36.62a174.78,174.78,0,0,0-214.1,0Z"/><path class="cls-1" d="M110.81,159.4H.73C.27,164.53,0,169.71,0,175A175,175,0,0,0,110.81,337.71Z"/><path class="cls-1" d="M194.94,159.4H155V349.2c6.59.43,13.25.7,20,.7s13.4-.27,20-.7Z"/></g></g></svg>