<svg xmlns="http://www.w3.org/2000/svg" viewBox="0 0 501.82 119.55"><defs><style>.cls-1{fill:#279aff;}</style></defs><title>ukkofi_logo_1color</title><g id="Layer_1-2"><path class="cls-1" d="M34.16 96C13.3 96 0 87.47 0 68a48.34 48.34 0 0 1 1-9.88L11 6.71h31.21l-10 51.48a20.91 20.91 0 0 0-.49 4.39c0 4.51 2.44 6.22 7.81 6.22 6.83 0 9.88-2.68 11.47-10.61L61 6.71h31.23l-10 51.36C77.1 84.54 58.07 96 34.16 96zM86.62 94.55l17-87.84h31.23l-6.22 31.6c12.69-1.46 20.13-9.88 22.08-31.6H182c-.49 16-5.61 34.16-25.5 44.77.49 12.44 6.83 17 18.54 17l-3.17 26.11a86.42 86.42 0 0 1-9.39.61c-17.2 0-29.4-7.69-31.6-33.3-2.44 0-6.22-.24-6.22-.24l-7 32.94zM179.22 94.55l17-87.84h31.18l-6.22 31.6c12.69-1.46 20.13-9.88 22.08-31.6h31.35c-.49 16-5.61 34.16-25.5 44.77.49 12.44 6.83 17 18.54 17l-3.17 26.11a86.42 86.42 0 0 1-9.39.61c-17.2 0-29.4-7.69-31.6-33.3-2.44 0-6.22-.24-6.22-.24l-7 32.94zM329 5.25c23.67 0 36.6 11 36.6 32.45 0 30.86-19.4 58.31-54.29 58.31-23.67 0-36.48-11-36.48-32.33C274.86 32.69 294 5.25 329 5.25zm-22.08 54c0 7.44 3.54 9.39 9.76 9.39 10.25 0 16.83-11.22 16.83-26.47 0-7.69-3.54-9.64-9.88-9.64-13.39.04-16.68 15.17-16.68 26.76zM366.73 70.88h26.47l-4.51 23.67h-26.48zM461.76 21c-3.17-.37-6-.61-7.44-.61-4.76 0-7.56 0-8.42 4.64a3 3 0 0 0-.12 1.46h15l-4.27 21.59h-14.15l-14 71.49H398.2l14-71.49h-8.17L408 28.3l8.42-1.46 1.22-6.1C420.77 4.27 431.87 0 448.22 0c5.25 0 11.1.49 17.45 1.1zm35.18 5.49l-9 45.38c-.61 3.42 2.2 3.66 8.3 4L493 94.3a148.87 148.87 0 0 1-16.23 1.1c-15.25 0-22.69-6.47-19.27-24l8.78-44.89zm-25.86-25h30.74L498 21.35h-30.7z"/></g></svg>