<svg id="Layer_2_1_" xmlns="http://www.w3.org/2000/svg" width="166" height="49.6" viewBox="0 0 166 49.6"><style>.st0{fill:#fbb914}</style><path class="st0" d="M43 18.4c-4.7 0-8.4 4-8.4 9.1v.1c0 2.1.6 3.9 1.7 5.5.8 1.2 1.8 2 3.1 2.6 1.2.6 2.6.9 4 .9 2.6 0 4.7-.8 6.5-2.6.4-.4.7-.9.7-1.4 0-1-.8-1.9-1.9-1.9-.7 0-1.1.4-1.2.5-1.2 1.1-2.5 1.6-4 1.6-2.3 0-4-1.4-4.6-3.7h10.4c1.1 0 1.9-.9 1.9-2-.1-4.2-2.9-8.7-8.2-8.7zm-.1 3.7c2.8 0 3.8 2.3 4.1 3.7h-8.2c.5-2.3 2.1-3.7 4.1-3.7zm19.1.2c1.1 0 1.9-.9 1.9-1.9s-.9-1.9-1.9-1.9h-3.3v-2.9c0-1.1-.9-2.1-2.1-2.1-1.1 0-2 .9-2 2.1v2.9h-.4c-1 0-1.9.9-1.9 1.9s.9 1.9 1.9 1.9h.4v8.8c0 3.4 2 5.4 5.4 5.4 1 0 1.9-.2 2.7-.5s1.2-1 1.2-1.7c0-1-.9-1.9-1.9-1.9-.2 0-.3 0-.5.1s-.5.1-1 .1c-1.3 0-1.8-.5-1.8-1.8v-8.5H62zm12-4.2c-5.2 0-9.2 4.1-9.2 9.2v.1c0 5.1 4 9.2 9.2 9.2s9.3-4.1 9.3-9.2v-.1c-.1-5.2-4.1-9.2-9.3-9.2zm0 14.6c-2.8 0-5.1-2.4-5.1-5.4v-.1c0-3 2.2-5.3 5-5.3 2.9 0 5.1 2.4 5.1 5.4v.1c.1 3-2.1 5.3-5 5.3zm20.6-14.6c-1.9 0-3.4.6-4.7 1.7-.2-.9-1-1.5-2-1.5-1.1 0-2 .9-2 2.1v13.9c0 1.2.9 2.1 2.1 2.1 1.1 0 2-.9 2-2.1v-8.1c0-2.5 1.6-4.2 3.9-4.2s3.6 1.4 3.6 4v8.3c0 1.2.9 2.1 2.1 2.1 1.1 0 2-.9 2-2.1v-8.9c0-4.4-2.8-7.3-7-7.3zm17.2.1c-2 0-3.7.4-5.6 1.1-.6.2-1.2.9-1.2 1.8 0 1 .9 1.9 1.9 1.9.2 0 .5-.1.8-.2 1.2-.6 2.5-.8 3.8-.8 2.4 0 3.7 1 3.9 3-1-.2-2.3-.4-4-.4-4.7 0-7.7 2.4-7.7 6v.1c0 3.8 3.4 5.9 6.9 5.9 2.3 0 3.9-.8 5-1.6.2.8 1 1.4 1.9 1.4 1.1 0 2-.9 2-2v-8.8c0-2.3-.6-4-1.9-5.3-1.3-1.4-3.3-2.1-5.8-2.1zm-.8 14.7c-1.5 0-3.2-.7-3.2-2.3v-.1c0-2.2 2.7-2.5 3.8-2.5 1.3 0 2.6.2 3.9.5v.9c0 2.1-1.9 3.5-4.5 3.5zm25.3-14.6c-1.1 0-2 .9-2 2.1v8.1c0 2.5-1.6 4.2-3.9 4.2s-3.6-1.4-3.6-4v-8.3c0-1.1-.9-2.1-2.1-2.1-1.1 0-2 .9-2 2.1v8.9c0 4.4 2.8 7.3 7 7.3 1.8 0 3.4-.6 4.7-1.7.2.9 1 1.5 2 1.5 1.1 0 2-.9 2-2.1V20.4c0-1.2-.9-2.1-2.1-2.1zm8-6.6c-1.1 0-2 1-2 2.1v20.5c0 1.2.9 2.1 2.1 2.1 1.1 0 2-.9 2-2.1V13.8c-.1-1.2-1-2.1-2.1-2.1zm18.6 8.6c-1.3-1.3-3.3-2-5.8-2-2 0-3.7.4-5.6 1.1-.6.2-1.2.9-1.2 1.8 0 1 .9 1.9 1.9 1.9.2 0 .5-.1.8-.2 1.2-.6 2.5-.8 3.8-.8 2.4 0 3.7 1 3.9 3-1-.2-2.3-.4-4-.4-4.7 0-7.7 2.4-7.7 6v.1c0 3.8 3.4 5.9 6.8 5.9 2.3 0 3.9-.8 5-1.6.2.8 1 1.4 1.9 1.4 1.1 0 2-.9 2-2v-8.8c.1-2.4-.6-4.2-1.8-5.4zm-6.6 12.6c-1.5 0-3.2-.7-3.2-2.3v-.1c0-2.2 2.7-2.5 3.8-2.5 1.3 0 2.6.2 3.9.5v.9c0 2.1-2 3.5-4.5 3.5z"/><path class="st0" d="M33.6 37.1c-.6-.2-1.4 0-1.9.4-.2.1-.4.3-.6.4-2.4 1.6-5.1 2.4-8 2.4-1.4 0-2.8-.2-4.4-.5-4.7-1-8.6-3.9-11.1-8.1s-3.2-9.4-1.9-14.1c1.8-6.3 8-11 14.8-11 1.1 0 2.2.1 3.2.3 2.2.5 5 1.9 6.4 4.4 1 1.8 1 4 .1 6.5L25 30.3l-6.5-15.5c-.4-.9-1.1-1.4-2-1.4-1.1 0-2.1.9-2.1 2 0 .4.1.6.2.9L22.7 35c.4 1 1.2 1.5 2.2 1.5h.1c.7 0 1.6-.3 2.2-1.5l6.6-15.3c.1-.1.1-.2.2-.4 1.4-3.6 1.3-7-.3-9.9-1.7-3.2-5.1-5.6-9.1-6.5-1.3-.3-2.7-.4-4-.4-8.6.1-16.5 6-18.7 14.1-1.6 5.8-.8 12.1 2.3 17.3 3.1 5.1 8 8.7 13.7 9.9 1.8.4 3.6.6 5.2.6 3.6 0 6.8-.9 9.8-2.8l.9-.6s.1 0 .1-.1c.4-.3 1-1 1.1-1.5s0-1.1-.4-1.5c-.2-.4-.6-.6-1-.8z"/></svg>