<?xml version="1.0" encoding="utf-8"?>
<!-- Generator: Adobe Illustrator 21.0.2, SVG Export Plug-In . SVG Version: 6.00 Build 0)  -->
<svg version="1.1" id="Layer_1" xmlns="http://www.w3.org/2000/svg" xmlns:xlink="http://www.w3.org/1999/xlink" x="0px" y="0px"
	 viewBox="0 0 204.6 138.8" style="enable-background:new 0 0 204.6 138.8;" xml:space="preserve">
<style type="text/css">
	.st0{fill:#2AA260;}
</style>
<path class="st0" d="M153.4,1.8c-3.6-2.1-8.1-0.8-10.2,2.7l-26.7,46.2V7.5c0-0.1,0-0.1,0-0.2c-0.1-2.5-1.4-4.9-3.7-6.3
	c-3.6-2.1-8.1-0.8-10.2,2.7L75.4,50.6V7.9c0.2-2.7-1.2-5.4-3.7-6.9c-3.6-2.1-8.1-0.8-10.2,2.7L35.1,49.3c-2.1,3.6-0.8,8.1,2.7,10.2
	c3.6,2.1,8.1,0.8,10.2-2.7l12.4-21.5v43.2c0.1,2.9,1.3,5.1,3.8,6.5c3.6,2.1,8.1,0.8,10.2-2.7l27.2-47v43.3c0,0.1,0,0.1,0,0.2
	c0.1,2.5,1.4,4.9,3.7,6.2c3.6,2.1,8.1,0.8,10.2-2.7L156.2,12C158.2,8.5,157,3.9,153.4,1.8z"/>
<g>
	<path class="st0" d="M17,115.4l7.1-17.5H26l7.1,17.5h-2.3l-2.1-5.3h-7.3l-2.1,5.3H17z M25,100.7c-0.8,2.2-1.5,4.2-2.2,5.9l-0.7,1.6
		h5.8l-0.7-1.6C26.5,104.8,25.8,102.8,25,100.7L25,100.7z M43,113.9c0.6,0,1.2-0.1,1.7-0.2c0.5-0.1,0.9-0.4,1.3-0.6
		c0.4-0.3,0.7-0.6,0.9-1c0.2-0.4,0.4-0.8,0.6-1.3c0.1-0.3,0.1-0.6,0.2-1c0-0.4,0.1-0.7,0.1-1V97.9h2.1v10.8c0,0.4,0,0.8-0.1,1.3
		c0,0.4-0.1,0.9-0.2,1.2c-0.2,0.6-0.4,1.2-0.7,1.8c-0.3,0.6-0.8,1-1.3,1.4c-0.5,0.4-1.2,0.7-1.9,0.9c-0.7,0.2-1.6,0.3-2.6,0.3
		c-1,0-1.8-0.1-2.5-0.3c-0.7-0.2-1.3-0.5-1.9-0.9c-0.5-0.4-0.9-0.8-1.3-1.3c-0.3-0.5-0.6-1.1-0.8-1.7c-0.1-0.4-0.2-0.9-0.3-1.4
		c-0.1-0.5-0.1-1-0.1-1.5V97.9h2.1v10.9c0,0.4,0,0.8,0.1,1.2c0.1,0.4,0.1,0.8,0.3,1.1c0.3,0.8,0.8,1.5,1.5,2
		C40.9,113.6,41.8,113.9,43,113.9 M57.8,115.4h-2.1V97.9h4.8c0.7,0,1.4,0,2,0.1c0.6,0.1,1.2,0.2,1.7,0.4c1,0.4,1.8,0.9,2.4,1.7
		c0.5,0.8,0.8,1.7,0.8,2.8c0,0.9-0.2,1.7-0.5,2.3c-0.4,0.7-0.9,1.2-1.5,1.7c-0.7,0.4-1.5,0.8-2.4,1c-1,0.2-2.1,0.3-3.3,0.3
		c-0.6,0-1.2,0-1.8-0.1V115.4z M57.8,106.3c0.3,0,0.6,0.1,0.9,0.1c0.3,0,0.6,0,0.9,0c1,0,1.9-0.1,2.6-0.2c0.7-0.2,1.3-0.4,1.7-0.7
		c0.4-0.3,0.8-0.7,1-1.1c0.2-0.4,0.3-0.9,0.3-1.5c0-0.7-0.2-1.2-0.5-1.7c-0.3-0.4-0.8-0.8-1.4-1c-0.4-0.1-0.8-0.2-1.3-0.3
		c-0.5-0.1-1.1-0.1-1.7-0.1h-2.5V106.3z M74.6,115.4h-2.1V97.9h4.8c0.7,0,1.4,0,2,0.1c0.6,0.1,1.2,0.2,1.7,0.4
		c1,0.4,1.8,0.9,2.4,1.7c0.5,0.8,0.8,1.7,0.8,2.8c0,0.9-0.2,1.7-0.5,2.3c-0.4,0.7-0.9,1.2-1.5,1.7c-0.7,0.4-1.5,0.8-2.4,1
		c-1,0.2-2.1,0.3-3.3,0.3c-0.6,0-1.2,0-1.8-0.1V115.4z M74.6,106.3c0.3,0,0.6,0.1,0.9,0.1c0.3,0,0.6,0,0.9,0c1,0,1.9-0.1,2.6-0.2
		c0.7-0.2,1.3-0.4,1.7-0.7c0.4-0.3,0.8-0.7,1-1.1c0.2-0.4,0.3-0.9,0.3-1.5c0-0.7-0.2-1.2-0.5-1.7c-0.3-0.4-0.8-0.8-1.4-1
		c-0.4-0.1-0.8-0.2-1.3-0.3c-0.5-0.1-1.1-0.1-1.7-0.1h-2.5V106.3z M85.4,115.4l7.1-17.5h1.8l7.1,17.5h-2.3l-2.1-5.3h-7.3l-2.1,5.3
		H85.4z M93.4,100.7c-0.8,2.2-1.5,4.2-2.2,5.9l-0.7,1.6h5.8l-0.7-1.6C95,104.8,94.2,102.8,93.4,100.7L93.4,100.7z M126,113.5h9v1.9
		h-11.1V97.9h10.6v1.9H126v5.7h7.5v1.9H126V113.5z M141.9,102.6c0,0.5,0.1,0.9,0.3,1.3c0.2,0.3,0.5,0.6,0.8,0.8
		c0.3,0.2,0.8,0.4,1.2,0.5c0.5,0.1,1,0.3,1.5,0.4c0.7,0.2,1.3,0.3,2,0.5c0.7,0.2,1.2,0.5,1.8,0.8c0.5,0.4,0.9,0.8,1.2,1.4
		c0.3,0.6,0.5,1.3,0.5,2.2c0,0.9-0.2,1.7-0.5,2.3c-0.3,0.7-0.8,1.2-1.4,1.6c-0.6,0.4-1.3,0.7-2.2,0.9c-0.8,0.2-1.7,0.3-2.7,0.3
		c-0.5,0-0.9,0-1.4-0.1c-0.5-0.1-0.9-0.1-1.4-0.2c-0.4-0.1-0.8-0.2-1.2-0.3c-0.3-0.1-0.6-0.2-0.8-0.4v-2c0.3,0.2,0.7,0.3,1.1,0.4
		c0.4,0.1,0.8,0.2,1.2,0.3c0.4,0.1,0.8,0.2,1.3,0.2c0.4,0.1,0.8,0.1,1.2,0.1c0.6,0,1.2-0.1,1.7-0.2c0.6-0.1,1-0.3,1.5-0.5
		c0.4-0.2,0.7-0.6,1-1c0.2-0.4,0.4-1,0.4-1.6c0-0.5-0.1-1-0.3-1.3c-0.2-0.3-0.5-0.6-0.9-0.8c-0.4-0.2-0.8-0.4-1.2-0.5
		c-0.5-0.1-1-0.3-1.5-0.4c-0.7-0.2-1.3-0.3-2-0.5c-0.6-0.2-1.2-0.5-1.7-0.8c-0.5-0.3-0.9-0.8-1.2-1.4c-0.3-0.5-0.5-1.2-0.5-2.1
		c0-0.9,0.2-1.7,0.5-2.3c0.3-0.6,0.8-1.2,1.3-1.6c0.6-0.4,1.2-0.7,1.9-0.9c0.7-0.2,1.5-0.3,2.3-0.3c0.9,0,1.8,0.1,2.6,0.3
		c0.8,0.2,1.5,0.4,2.2,0.7v2c-0.7-0.3-1.5-0.6-2.2-0.7s-1.6-0.3-2.5-0.3c-0.7,0-1.2,0.1-1.7,0.2c-0.5,0.1-0.9,0.3-1.2,0.6
		c-0.3,0.3-0.6,0.6-0.7,1C141.9,101.7,141.9,102.1,141.9,102.6 M157,115.4V97.9h2.1v8.6h0l8-8.6h2.7l-8.2,8.7l8.6,8.8h-2.7l-8.5-8.6
		h0v8.6H157z M181.2,113.9c0.6,0,1.2-0.1,1.7-0.2c0.5-0.1,0.9-0.4,1.3-0.6c0.4-0.3,0.7-0.6,0.9-1c0.2-0.4,0.4-0.8,0.6-1.3
		c0.1-0.3,0.1-0.6,0.2-1c0-0.4,0.1-0.7,0.1-1V97.9h2.1v10.8c0,0.4,0,0.8-0.1,1.3c0,0.4-0.1,0.9-0.2,1.2c-0.2,0.6-0.4,1.2-0.7,1.8
		c-0.3,0.6-0.8,1-1.3,1.4c-0.5,0.4-1.2,0.7-1.9,0.9c-0.7,0.2-1.6,0.3-2.6,0.3c-1,0-1.8-0.1-2.5-0.3c-0.7-0.2-1.3-0.5-1.9-0.9
		c-0.5-0.4-0.9-0.8-1.3-1.3c-0.3-0.5-0.6-1.1-0.8-1.7c-0.1-0.4-0.2-0.9-0.3-1.4c-0.1-0.5-0.1-1-0.1-1.5V97.9h2.1v10.9
		c0,0.4,0,0.8,0.1,1.2c0.1,0.4,0.1,0.8,0.3,1.1c0.3,0.8,0.8,1.5,1.5,2C179.1,113.6,180.1,113.9,181.2,113.9 M195.3,102.6
		c0,0.5,0.1,0.9,0.3,1.3c0.2,0.3,0.5,0.6,0.8,0.8c0.4,0.2,0.8,0.4,1.2,0.5c0.5,0.1,1,0.3,1.5,0.4c0.7,0.2,1.3,0.3,2,0.5
		c0.7,0.2,1.2,0.5,1.8,0.8c0.5,0.4,0.9,0.8,1.2,1.4c0.3,0.6,0.5,1.3,0.5,2.2c0,0.9-0.2,1.7-0.5,2.3c-0.3,0.7-0.8,1.2-1.4,1.6
		c-0.6,0.4-1.3,0.7-2.2,0.9c-0.8,0.2-1.7,0.3-2.7,0.3c-0.5,0-0.9,0-1.4-0.1c-0.5-0.1-0.9-0.1-1.4-0.2c-0.4-0.1-0.8-0.2-1.2-0.3
		c-0.3-0.1-0.6-0.2-0.8-0.4v-2c0.3,0.2,0.7,0.3,1.1,0.4c0.4,0.1,0.8,0.2,1.2,0.3c0.4,0.1,0.8,0.2,1.3,0.2c0.4,0.1,0.8,0.1,1.2,0.1
		c0.6,0,1.2-0.1,1.7-0.2c0.6-0.1,1-0.3,1.5-0.5c0.4-0.2,0.8-0.6,1-1c0.2-0.4,0.4-1,0.4-1.6c0-0.5-0.1-1-0.3-1.3
		c-0.2-0.3-0.5-0.6-0.9-0.8c-0.4-0.2-0.8-0.4-1.2-0.5c-0.5-0.1-1-0.3-1.5-0.4c-0.7-0.2-1.3-0.3-2-0.5c-0.7-0.2-1.2-0.5-1.7-0.8
		c-0.5-0.3-0.9-0.8-1.2-1.4c-0.3-0.5-0.5-1.2-0.5-2.1c0-0.9,0.2-1.7,0.5-2.3c0.3-0.6,0.8-1.2,1.3-1.6c0.6-0.4,1.2-0.7,1.9-0.9
		c0.7-0.2,1.5-0.3,2.3-0.3c0.9,0,1.8,0.1,2.6,0.3c0.8,0.2,1.5,0.4,2.2,0.7v2c-0.7-0.3-1.5-0.6-2.2-0.7c-0.8-0.2-1.6-0.3-2.5-0.3
		c-0.7,0-1.2,0.1-1.7,0.2c-0.5,0.1-0.9,0.3-1.2,0.6c-0.3,0.3-0.6,0.6-0.7,1C195.4,101.7,195.3,102.1,195.3,102.6 M71,126
		c-0.3,1.6-0.7,3.3-1.2,5l-2,7.8h-3.2l-5.5-17.5h3.4l2.1,7c0.6,2.2,1.1,4.2,1.5,5.9h0.1c0.4-1.9,0.8-3.8,1.3-5.8l1.8-7h3.3l1.8,7
		c0.5,2,0.9,3.9,1.3,5.8h0.1c0.5-2.1,1-4.1,1.5-5.9l2.1-7h3.4l-5.5,17.5h-3.2l-2-7.8C71.8,129.2,71.4,127.5,71,126L71,126z
		 M87.3,121.4h3.2v17.5h-3.2V121.4z M99.9,121.4v14.8h8.2v2.7H96.7v-17.5H99.9z M115.7,121.4v14.8h8.2v2.7h-11.4v-17.5H115.7z
		 M138.4,134.4h-6.6l-1.7,4.4h-3.4l6.9-17.5h2.9l6.9,17.5h-3.4L138.4,134.4z M135.1,125.6c-0.6,1.8-1.2,3.4-1.6,4.6l-0.6,1.6h4.5
		l-0.6-1.6C136.3,128.9,135.7,127.4,135.1,125.6L135.1,125.6z M105.7,115.4V97.9h2.1v8.6h0l8-8.6h2.7l-8.2,8.7l8.6,8.8h-2.7
		l-8.5-8.6h0v8.6H105.7z M0,115.4V97.9h2.1v8.6h0l8-8.6h2.7l-8.2,8.7l8.6,8.8h-2.7l-8.5-8.6h0v8.6H0z"/>
</g>
</svg>
